<svg xmlns="http://www.w3.org/2000/svg" width="512" height="512" viewBox="0 0 512 512">
<g>
<path d="M 510.72 33.94 C511.02,36.17 511.43,38.00 511.63,38.00 C511.83,38.00 512.00,29.45 512.00,19.00 L 512.00 512.00 L 0.00 512.00 L 0.00 0.00 L 512.00 0.00 L 492.75 0.11 C479.18,0.19 474.78,0.47 477.82,1.07 C493.28,4.11 508.80,19.62 510.72,33.94 ZM 35.99 494.07 C40.00,495.28 471.83,495.17 476.22,493.95 C481.51,492.49 487.95,487.25 491.48,481.54 L 494.50 476.66 L 494.76 281.45 L 495.02 86.24 L 492.76 85.64 C491.52,85.31 389.02,85.04 265.00,85.03 L 39.50 85.03 L 36.75 82.00 C33.18,78.07 33.24,74.61 36.92,70.92 L 39.85 68.00 L 495.00 68.00 L 495.00 54.18 C495.00,37.08 493.67,31.90 487.73,25.80 C485.41,23.41 481.70,20.57 479.50,19.48 C475.55,17.53 472.65,17.50 255.42,17.50 L 35.34 17.50 L 30.46 20.52 C24.69,24.09 19.47,30.56 18.02,35.93 C17.31,38.55 17.07,109.84 17.24,258.14 C17.49,468.91 17.56,476.62 19.36,480.00 C22.96,486.76 29.12,491.98 35.99,494.07 ZM 400.34 407.59 C396.62,409.44 392.03,409.51 257.50,409.67 C169.25,409.77 117.27,409.48 115.12,408.85 C106.84,406.46 103.17,401.36 102.30,391.09 L 101.72 384.09 L 73.53 383.79 L 45.34 383.50 L 41.65 380.68 C40.35,379.69 39.29,379.15 38.42,378.39 C34.46,374.94 34.44,366.97 34.26,291.97 C34.25,284.37 34.23,276.09 34.20,267.04 C33.99,193.83 34.23,160.37 34.98,157.80 C36.37,153.01 40.54,148.09 44.67,146.36 C47.15,145.33 54.38,145.00 74.86,145.00 L 101.79 145.00 L 102.14 129.68 C102.48,115.05 102.62,114.17 105.16,110.33 C106.62,108.12 109.55,105.45 111.66,104.41 C115.38,102.56 119.81,102.50 256.00,102.50 C392.19,102.50 396.62,102.56 400.34,104.41 C402.45,105.45 405.38,108.12 406.84,110.33 C409.38,114.17 409.52,115.05 409.86,129.68 L 410.21 145.00 L 437.14 145.00 C457.62,145.00 464.85,145.33 467.33,146.36 C471.46,148.09 475.63,153.01 477.02,157.80 C477.77,160.37 478.01,193.83 477.80,267.04 C477.77,276.09 477.75,284.37 477.74,291.97 C477.56,366.97 477.54,374.94 473.58,378.39 C472.71,379.15 471.65,379.69 470.35,380.68 L 466.66 383.50 L 438.47 383.79 L 410.28 384.09 L 409.69 391.17 C408.98,399.66 406.08,404.74 400.34,407.59 ZM 119.25 226.75 C119.11,285.74 119.36,334.00 119.81,334.00 C120.27,334.00 126.01,327.63 132.57,319.84 C139.13,312.06 151.25,297.76 159.50,288.08 C167.75,278.39 180.10,263.79 186.94,255.63 C193.79,247.48 200.50,240.38 201.87,239.86 C206.28,238.18 209.67,239.82 215.30,246.33 C221.78,253.81 252.95,290.51 265.80,305.78 C270.92,311.86 276.29,318.02 277.74,319.47 L 280.38 322.11 L 304.48 298.02 C325.53,276.98 329.05,273.87 332.35,273.33 L 336.13 272.72 L 364.01 300.52 C389.20,325.66 391.93,328.10 392.46,325.92 C392.79,324.59 392.93,277.60 392.77,221.50 L 392.50 119.50 L 119.50 119.50 ZM 119.90 392.71 C120.09,393.10 374.59,392.68 383.25,392.27 L 392.00 391.85 L 392.00 352.49 L 362.51 323.01 L 333.01 293.53 L 300.72 325.76 C270.29,356.14 268.22,358.00 264.83,358.00 C260.14,358.00 257.08,355.41 256.35,350.80 C255.79,347.35 256.14,346.71 261.51,341.07 C266.65,335.68 267.13,334.84 265.90,333.27 C263.75,330.49 245.30,308.57 224.25,283.78 L 204.95 261.05 L 201.61 264.78 C199.77,266.82 188.95,279.52 177.56,293.00 C156.48,317.96 150.80,324.65 131.45,347.35 C123.42,356.77 120.32,361.17 119.82,363.85 C119.30,366.62 119.38,391.59 119.90,392.71 ZM 51.67 366.33 C52.03,366.70 63.51,367.00 77.17,367.00 L 102.00 367.00 L 102.00 162.00 L 51.00 162.00 L 51.00 263.83 C51.00,319.84 51.30,365.97 51.67,366.33 ZM 410.00 162.00 L 410.00 367.03 L 435.25 366.77 L 460.50 366.50 L 460.75 264.25 L 461.01 162.00 ZM 312.52 236.10 C306.92,238.57 296.63,239.45 290.73,237.97 C281.58,235.67 272.95,228.64 268.22,219.63 C265.85,215.12 265.53,213.36 265.51,205.00 C265.50,196.46 265.80,194.92 268.44,189.71 C274.25,178.24 283.89,172.08 297.30,171.28 C304.06,170.88 306.49,171.17 311.15,172.93 C318.62,175.76 324.88,181.43 329.06,189.18 C332.23,195.06 332.47,196.13 332.45,204.50 C332.43,211.64 331.95,214.55 330.16,218.59 C327.30,225.00 319.00,233.25 312.52,236.10 ZM 475.12 49.11 C472.87,50.92 469.95,51.00 401.44,51.00 L 330.11 51.00 L 327.55 48.75 C326.15,47.51 324.72,45.06 324.38,43.29 C323.87,40.61 324.26,39.58 326.81,37.04 L 329.85 34.00 L 471.89 34.00 L 474.67 36.39 C478.41,39.61 478.64,46.25 475.12,49.11 ZM 370.80 476.59 C366.96,478.59 364.51,478.35 361.35,475.63 C359.20,473.77 358.62,472.44 358.70,469.50 C358.79,466.31 359.72,464.83 364.90,459.60 C368.26,456.21 371.00,453.05 371.00,452.56 C371.00,452.07 368.30,448.86 365.00,445.42 C359.91,440.13 359.00,438.62 359.00,435.54 C359.00,430.82 362.62,427.00 367.10,427.00 C369.82,427.00 371.92,428.60 381.15,437.69 C391.31,447.70 392.00,448.64 392.00,452.33 C392.00,455.95 391.25,457.03 382.75,465.72 C377.66,470.92 372.28,475.81 370.80,476.59 ZM 148.93 476.54 C147.37,477.34 145.51,478.00 144.80,478.00 C142.24,477.99 137.36,474.12 128.75,465.26 C120.76,457.04 120.00,455.92 120.00,452.32 C120.00,448.64 120.70,447.70 130.85,437.69 C140.57,428.12 142.08,427.00 145.28,427.00 C149.75,427.00 153.00,430.67 153.00,435.72 C153.00,438.58 151.97,440.25 147.00,445.42 C143.70,448.86 141.00,452.04 141.00,452.50 C141.00,452.96 143.70,456.14 147.00,459.58 C151.62,464.39 153.00,466.52 153.00,468.83 C153.00,473.20 152.11,474.89 148.93,476.54 ZM 290.53 219.72 C297.53,223.68 306.12,222.21 311.21,216.16 C321.18,204.32 313.63,188.00 298.19,188.00 C288.86,188.00 282.00,195.20 282.00,205.00 C282.00,211.88 284.59,216.35 290.53,219.72 ZM 0.11 492.75 L 0.00 512.00 L 38.50 511.88 L 31.95 510.17 C16.82,506.23 4.01,492.85 1.09,477.95 C0.46,474.72 0.19,478.79 0.11,492.75 ZM 479.24 510.44 C473.69,511.79 474.14,511.84 492.75,511.92 L 512.00 512.00 L 511.89 492.75 C511.81,478.79 511.54,474.72 510.91,477.95 C509.50,485.14 505.03,493.09 499.02,499.13 C492.66,505.50 487.54,508.43 479.24,510.44 ZM 0.11 19.25 C0.19,33.21 0.46,37.28 1.09,34.05 C4.08,18.81 18.81,4.08 34.05,1.09 C37.28,0.46 33.21,0.19 19.25,0.11 L 0.00 0.00 ZM 363.10 211.71 C357.13,215.74 345.80,214.23 343.03,209.05 C341.73,206.63 341.71,202.41 342.98,200.04 C345.05,196.17 355.97,194.71 362.47,197.42 C365.15,198.54 366.02,199.59 366.53,202.32 C367.49,207.45 366.86,209.18 363.10,211.71 ZM 253.74 210.52 C251.88,212.67 250.40,213.23 245.49,213.60 C235.93,214.31 231.00,211.10 231.00,204.15 C231.00,202.06 231.91,200.41 234.08,198.59 C236.64,196.44 238.16,196.00 243.13,196.00 C249.41,196.00 254.34,197.83 255.38,200.54 C256.63,203.80 255.95,207.95 253.74,210.52 ZM 303.70 160.50 C300.39,162.82 295.71,162.38 293.01,159.51 C290.52,156.86 289.15,148.52 290.39,143.57 C291.39,139.60 294.87,137.00 299.19,137.00 C304.42,137.00 306.67,139.52 307.52,146.33 C308.33,152.79 306.84,158.30 303.70,160.50 ZM 304.30 270.98 C300.87,273.68 296.73,273.53 293.31,270.59 C290.69,268.34 290.50,267.65 290.50,260.67 C290.50,254.10 290.80,252.84 292.92,250.58 C295.52,247.82 300.48,247.12 304.03,249.02 C308.95,251.65 309.13,267.18 304.30,270.98 ZM 82.69 48.83 C77.90,53.32 69.70,50.15 68.38,43.29 C67.87,40.61 68.26,39.58 70.81,37.04 C74.44,33.40 78.54,33.06 82.37,36.07 C85.94,38.89 86.11,45.61 82.69,48.83 ZM 116.65 48.63 C111.02,53.47 102.60,49.86 102.60,42.61 C102.60,38.11 105.30,35.15 110.13,34.37 C118.07,33.08 122.76,43.37 116.65,48.63 ZM 48.55 48.55 C45.10,51.99 40.65,51.81 36.92,48.08 C33.09,44.24 33.13,40.72 37.05,36.80 C39.68,34.17 40.59,33.83 43.80,34.35 C50.85,35.48 53.55,43.54 48.55,48.55 ZM 327.53 459.81 C323.76,461.52 322.53,461.32 319.08,458.41 C312.89,453.20 316.18,444.00 324.23,444.00 C327.01,444.00 328.40,444.69 330.41,447.08 C331.83,448.77 333.00,450.82 333.00,451.63 C333.00,454.37 330.16,458.60 327.53,459.81 ZM 192.92 458.41 C191.23,459.83 189.09,460.98 188.17,460.96 C184.02,460.88 179.12,455.98 179.04,451.83 C179.02,450.91 180.17,448.77 181.59,447.08 C186.84,440.84 196.00,444.31 196.00,452.55 C196.00,454.98 195.21,456.49 192.92,458.41 ZM 226.03 459.31 C223.05,461.34 221.35,461.38 217.86,459.48 C214.96,457.91 212.73,452.95 213.69,450.22 C215.82,444.20 222.43,442.19 227.37,446.07 C229.37,447.65 230.00,449.03 229.98,451.82 C229.97,456.02 229.47,456.95 226.03,459.31 ZM 293.94 459.53 C290.29,461.42 289.00,461.38 285.97,459.31 C282.53,456.95 282.03,456.02 282.02,451.82 C282.00,449.03 282.63,447.65 284.63,446.07 C289.57,442.19 296.18,444.20 298.31,450.22 C299.30,453.03 296.99,457.95 293.94,459.53 ZM 259.32 459.84 C256.61,461.28 255.07,461.27 252.50,459.79 C244.89,455.43 247.42,444.00 256.00,444.00 C260.44,444.00 264.01,447.50 263.97,451.82 C263.93,455.86 262.65,458.06 259.32,459.84 Z" fill="rgb(1,1,3)"/>
<path d="M 123.26 330.55 L 120.00 333.31 L 120.00 120.00 L 247.92 120.00 C318.27,120.00 376.54,120.27 377.40,120.60 C378.80,121.14 378.96,130.62 378.98,211.85 C379.00,300.42 378.73,309.27 375.91,311.04 C375.57,311.26 377.21,313.37 379.87,316.25 C375.95,312.42 370.79,307.29 364.01,300.52 L 336.13 272.72 L 332.35 273.33 C329.05,273.87 325.53,276.98 304.48,298.02 L 280.38 322.11 L 277.74 319.47 C276.29,318.02 270.92,311.86 265.80,305.78 C252.95,290.51 221.78,253.81 215.30,246.33 C209.67,239.82 206.28,238.18 201.87,239.86 C200.50,240.38 193.79,247.48 186.94,255.63 C180.10,263.79 167.75,278.39 159.50,288.08 C151.25,297.76 139.13,312.06 132.57,319.84 C128.97,324.11 125.63,327.95 123.26,330.55 ZM 312.52 236.10 C319.00,233.25 327.30,225.00 330.16,218.59 C331.95,214.55 332.43,211.64 332.45,204.50 C332.47,196.13 332.23,195.06 329.06,189.18 C324.88,181.43 318.62,175.76 311.15,172.93 C306.49,171.17 304.06,170.88 297.30,171.28 C283.89,172.08 274.25,178.24 268.44,189.71 C265.80,194.92 265.50,196.46 265.51,205.00 C265.53,213.36 265.85,215.12 268.22,219.63 C272.95,228.64 281.58,235.67 290.73,237.97 C296.63,239.45 306.92,238.57 312.52,236.10 ZM 363.10 211.71 C366.86,209.18 367.49,207.45 366.53,202.32 C366.02,199.59 365.15,198.54 362.47,197.42 C355.97,194.71 345.05,196.17 342.98,200.04 C341.71,202.41 341.73,206.63 343.03,209.05 C345.80,214.23 357.13,215.74 363.10,211.71 ZM 253.74 210.52 C255.95,207.95 256.63,203.80 255.38,200.54 C254.34,197.83 249.41,196.00 243.13,196.00 C238.16,196.00 236.64,196.44 234.08,198.59 C231.91,200.41 231.00,202.06 231.00,204.15 C231.00,211.10 235.93,214.31 245.49,213.60 C250.40,213.23 251.88,212.67 253.74,210.52 ZM 303.70 160.50 C306.84,158.30 308.33,152.79 307.52,146.33 C306.67,139.52 304.42,137.00 299.19,137.00 C294.87,137.00 291.39,139.60 290.39,143.57 C289.15,148.52 290.52,156.86 293.01,159.51 C295.71,162.38 300.39,162.82 303.70,160.50 ZM 304.30 270.98 C309.13,267.18 308.95,251.65 304.03,249.02 C300.48,247.12 295.52,247.82 292.92,250.58 C290.80,252.84 290.50,254.10 290.50,260.67 C290.50,267.65 290.69,268.34 293.31,270.59 C296.73,273.53 300.87,273.68 304.30,270.98 ZM 389.50 126.01 C388.69,128.56 387.36,128.54 385.99,125.98 C384.78,123.71 385.42,122.00 387.50,122.00 C389.42,122.00 390.25,123.65 389.50,126.01 ZM 119.25 226.75 C119.11,285.47 119.37,333.56 119.83,334.00 C119.83,334.00 119.82,334.00 119.81,334.00 C119.36,334.00 119.11,285.74 119.25,226.75 Z" fill="rgb(2,168,243)"/>
<path d="M 35.99 494.07 C29.12,491.98 22.96,486.76 19.36,480.00 C17.56,476.62 17.49,468.91 17.24,258.14 C17.14,171.98 17.18,111.81 17.37,76.00 L 19.18 75.37 C20.45,74.93 24.09,74.69 27.26,74.84 C32.41,75.09 33.13,74.95 35.86,72.11 C33.27,75.36 33.57,78.49 36.75,82.00 L 39.50 85.03 L 265.00 85.03 C389.02,85.04 491.52,85.31 492.76,85.64 L 495.02 86.24 L 494.76 281.45 L 494.50 476.66 L 491.48 481.54 C487.95,487.25 481.51,492.49 476.22,493.95 C471.83,495.17 40.00,495.28 35.99,494.07 ZM 400.34 407.59 C406.08,404.74 408.98,399.66 409.69,391.17 L 410.28 384.09 L 438.47 383.79 L 466.66 383.50 L 470.35 380.68 C471.65,379.69 472.71,379.15 473.58,378.39 C477.54,374.94 477.56,366.97 477.74,291.97 C477.75,284.37 477.77,276.09 477.80,267.04 C478.01,193.83 477.77,160.37 477.02,157.80 C475.63,153.01 471.46,148.09 467.33,146.36 C464.85,145.33 457.62,145.00 437.14,145.00 L 410.21 145.00 L 409.86 129.68 C409.52,115.05 409.38,114.17 406.84,110.33 C405.38,108.12 402.45,105.45 400.34,104.41 C396.62,102.56 392.19,102.50 256.00,102.50 C119.81,102.50 115.38,102.56 111.66,104.41 C109.55,105.45 106.62,108.12 105.16,110.33 C102.62,114.17 102.48,115.05 102.14,129.68 L 101.79 145.00 L 74.86 145.00 C54.38,145.00 47.15,145.33 44.67,146.36 C40.54,148.09 36.37,153.01 34.98,157.80 C34.23,160.37 33.99,193.83 34.20,267.04 C34.23,276.09 34.25,284.37 34.26,291.97 C34.44,366.97 34.46,374.94 38.42,378.39 C39.29,379.15 40.35,379.69 41.65,380.68 L 45.34 383.50 L 73.53 383.79 L 101.72 384.09 L 102.30 391.09 C103.17,401.36 106.84,406.46 115.12,408.85 C117.27,409.48 169.25,409.77 257.50,409.67 C392.03,409.51 396.62,409.44 400.34,407.59 ZM 51.67 366.33 C51.30,365.97 51.00,319.84 51.00,263.83 L 51.00 162.00 L 102.00 162.00 L 102.00 367.00 L 77.17 367.00 C63.51,367.00 52.03,366.70 51.67,366.33 ZM 410.00 162.00 L 461.01 162.00 L 460.75 264.25 L 460.50 366.50 L 435.25 366.77 L 410.00 367.03 ZM 119.25 226.75 L 119.50 119.50 L 392.50 119.50 L 392.77 221.50 C392.93,277.60 392.79,324.59 392.46,325.92 C392.08,327.51 390.51,326.64 379.87,316.25 C377.21,313.37 375.57,311.26 375.91,311.04 C378.73,309.27 379.00,300.42 378.98,211.85 C378.96,130.62 378.80,121.14 377.40,120.60 C376.54,120.27 318.27,120.00 247.92,120.00 L 120.00 120.00 L 120.00 333.31 L 122.25 331.40 L 123.26 330.55 C121.36,332.64 120.09,333.93 119.83,334.00 C119.37,333.56 119.11,285.47 119.25,226.75 ZM 370.80 476.59 C372.28,475.81 377.66,470.92 382.75,465.72 C391.25,457.03 392.00,455.95 392.00,452.33 C392.00,448.64 391.31,447.70 381.15,437.69 C371.92,428.60 369.82,427.00 367.10,427.00 C362.62,427.00 359.00,430.82 359.00,435.54 C359.00,438.62 359.91,440.13 365.00,445.42 C368.30,448.86 371.00,452.07 371.00,452.56 C371.00,453.05 368.26,456.21 364.90,459.60 C359.72,464.83 358.79,466.31 358.70,469.50 C358.62,472.44 359.20,473.77 361.35,475.63 C364.51,478.35 366.96,478.59 370.80,476.59 ZM 148.93 476.54 C152.11,474.89 153.00,473.20 153.00,468.83 C153.00,466.52 151.62,464.39 147.00,459.58 C143.70,456.14 141.00,452.96 141.00,452.50 C141.00,452.04 143.70,448.86 147.00,445.42 C151.97,440.25 153.00,438.58 153.00,435.72 C153.00,430.67 149.75,427.00 145.28,427.00 C142.08,427.00 140.57,428.12 130.85,437.69 C120.70,447.70 120.00,448.64 120.00,452.32 C120.00,455.92 120.76,457.04 128.75,465.26 C137.36,474.12 142.24,477.99 144.80,478.00 C145.51,478.00 147.37,477.34 148.93,476.54 ZM 467.75 18.09 C476.97,18.38 478.18,18.82 479.50,19.48 C481.70,20.57 485.41,23.41 487.73,25.80 C493.67,31.90 495.00,37.08 495.00,54.18 L 495.00 68.00 L 478.00 68.00 L 478.00 46.09 L 476.36 47.73 C478.19,44.97 478.02,40.70 475.93,37.78 L 478.16 40.01 L 477.49 36.75 C476.48,31.86 472.66,23.91 469.57,20.25 ZM 327.53 459.81 C330.16,458.60 333.00,454.37 333.00,451.63 C333.00,450.82 331.83,448.77 330.41,447.08 C328.40,444.69 327.01,444.00 324.23,444.00 C316.18,444.00 312.89,453.20 319.08,458.41 C322.53,461.32 323.76,461.52 327.53,459.81 ZM 192.92 458.41 C195.21,456.49 196.00,454.98 196.00,452.55 C196.00,444.31 186.84,440.84 181.59,447.08 C180.17,448.77 179.02,450.91 179.04,451.83 C179.12,455.98 184.02,460.88 188.17,460.96 C189.09,460.98 191.23,459.83 192.92,458.41 ZM 226.03 459.31 C229.47,456.95 229.97,456.02 229.98,451.82 C230.00,449.03 229.37,447.65 227.37,446.07 C222.43,442.19 215.82,444.20 213.69,450.22 C212.73,452.95 214.96,457.91 217.86,459.48 C221.35,461.38 223.05,461.34 226.03,459.31 ZM 293.94 459.53 C296.99,457.95 299.30,453.03 298.31,450.22 C296.18,444.20 289.57,442.19 284.63,446.07 C282.63,447.65 282.00,449.03 282.02,451.82 C282.03,456.02 282.53,456.95 285.97,459.31 C289.00,461.38 290.29,461.42 293.94,459.53 ZM 259.32 459.84 C262.65,458.06 263.93,455.86 263.97,451.82 C264.01,447.50 260.44,444.00 256.00,444.00 C247.42,444.00 244.89,455.43 252.50,459.79 C255.07,461.27 256.61,461.28 259.32,459.84 ZM 389.50 126.01 C390.25,123.65 389.42,122.00 387.50,122.00 C385.42,122.00 384.78,123.71 385.99,125.98 C387.36,128.54 388.69,128.56 389.50,126.01 ZM 474.65 49.44 L 473.09 51.00 L 401.60 51.00 C465.48,51.00 472.21,50.93 474.65,49.44 ZM 31.05 20.15 L 35.34 17.50 L 57.90 17.50 C43.88,17.65 36.55,17.83 35.78,18.05 C34.26,18.47 32.66,19.19 31.05,20.15 ZM 473.79 35.63 L 471.89 34.00 L 472.15 34.00 ZM 37.91 69.93 L 39.74 68.00 L 39.85 68.00 ZM 30.33 20.60 C28.42,21.82 26.52,23.37 24.81,25.09 C26.50,23.37 28.39,21.82 30.33,20.60 Z" fill="rgb(54,72,166)"/>
<path d="M 0.11 492.75 C0.19,478.79 0.46,474.72 1.09,477.95 C4.01,492.85 16.82,506.23 31.95,510.17 L 38.50 511.88 L 19.25 511.94 L 0.00 512.00 L 0.11 492.75 ZM 479.24 510.44 C487.54,508.43 492.66,505.50 499.02,499.13 C505.03,493.09 509.50,485.14 510.91,477.95 C511.54,474.72 511.81,478.79 511.89,492.75 L 512.00 512.00 L 492.75 511.92 C474.14,511.84 473.69,511.79 479.24,510.44 ZM 119.90 392.71 C119.38,391.59 119.30,366.62 119.82,363.85 C120.32,361.17 123.42,356.77 131.45,347.35 C150.80,324.65 156.48,317.96 177.56,293.00 C188.95,279.52 199.77,266.82 201.61,264.78 L 204.95 261.05 L 224.25 283.78 C245.30,308.57 263.75,330.49 265.90,333.27 C267.13,334.84 266.65,335.68 261.51,341.07 C256.14,346.71 255.79,347.35 256.35,350.80 C257.08,355.41 260.14,358.00 264.83,358.00 C268.22,358.00 270.29,356.14 300.72,325.76 L 333.01 293.53 L 362.51 323.01 L 392.00 352.49 L 392.00 372.17 L 392.00 391.85 L 383.25 392.27 C374.59,392.68 120.09,393.10 119.90,392.71 ZM 290.53 219.72 C284.59,216.35 282.00,211.88 282.00,205.00 C282.00,195.20 288.86,188.00 298.19,188.00 C313.63,188.00 321.18,204.32 311.21,216.16 C306.12,222.21 297.53,223.68 290.53,219.72 ZM 17.18 55.76 L 17.50 35.34 L 20.52 30.45 C24.05,24.75 30.49,19.51 35.78,18.05 C38.29,17.35 109.06,17.01 253.16,17.01 L 466.82 17.00 L 469.57 20.25 C472.66,23.91 476.48,31.86 477.49,36.75 L 478.16 40.01 L 475.16 37.00 L 472.15 34.00 L 401.00 34.00 L 329.85 34.00 L 326.81 37.04 C324.26,39.58 323.87,40.61 324.38,43.29 C324.72,45.06 326.15,47.51 327.55,48.75 L 330.11 51.00 L 401.60 51.00 L 473.09 51.00 L 475.55 48.55 L 478.00 46.09 L 478.00 57.05 L 478.00 68.00 L 258.87 68.00 L 39.74 68.00 L 36.38 71.56 C33.20,74.93 32.72,75.10 27.26,74.84 C24.09,74.69 20.45,74.93 19.18,75.37 L 16.85 76.18 L 17.18 55.76 ZM 48.55 48.55 C53.55,43.54 50.85,35.48 43.80,34.35 C40.59,33.83 39.68,34.17 37.05,36.80 C33.13,40.72 33.09,44.24 36.92,48.08 C40.65,51.81 45.10,51.99 48.55,48.55 ZM 82.69 48.83 C86.11,45.61 85.94,38.89 82.37,36.07 C78.54,33.06 74.44,33.40 70.81,37.04 C68.26,39.58 67.87,40.61 68.38,43.29 C69.70,50.15 77.90,53.32 82.69,48.83 ZM 116.65 48.63 C122.76,43.37 118.07,33.08 110.13,34.37 C105.30,35.15 102.60,38.11 102.60,42.61 C102.60,49.86 111.02,53.47 116.65,48.63 ZM 0.11 19.25 L 0.00 0.00 L 19.25 0.11 C33.21,0.19 37.28,0.46 34.05,1.09 C18.81,4.08 4.08,18.81 1.09,34.05 C0.46,37.28 0.19,33.21 0.11,19.25 ZM 510.72 33.94 C508.80,19.62 493.28,4.11 477.82,1.07 C474.78,0.47 479.18,0.19 492.75,0.11 L 512.00 0.00 L 512.00 19.00 C512.00,29.45 511.83,38.00 511.63,38.00 C511.43,38.00 511.02,36.17 510.72,33.94 Z" fill="rgb(105,150,86)"/>
</g>
</svg>